
<svg width="512" height="512" viewBox="0 0 512 512" xmlns="http://www.w3.org/2000/svg">
  <rect width="512" height="512" rx="100" fill="#0055FF"/>
  <path d="M176 160c-13.3 0-24 10.7-24 24v144c0 13.3 10.7 24 24 24h56V160h-56zm104 0v192h56c13.3 0 24-10.7 24-24V184c0-13.3-10.7-24-24-24h-56zm76.5-24.6l-18.9 15.4 6.7 23.2c1.2 4.1-3.4 7.5-6.9 5.1L256 160.5l-26.4 18.6c-3.5 2.4-8.1-1-6.9-5.1l6.7-23.2-18.9-15.4c-3.5-2.8-1.6-8.6 2.9-8.6h23.4l7.4-22.6c1.3-4 7-4 8.4 0l7.4 22.6h23.4c4.5 0 6.4 5.8 2.9 8.6z" fill="#fff"/>
</svg>
